<svg width="62" height="44" viewBox="0 0 62 44" fill="none" xmlns="http://www.w3.org/2000/svg">
<path d="M52.08 19.1125C52.4772 18.0616 52.7 16.9125 52.7 15.7143C52.7 10.5089 48.5344 6.28571 43.4 6.28571C41.4916 6.28571 39.7091 6.875 38.2366 7.87679C35.5531 3.1625 30.5447 0 24.8 0C16.2362 0 9.3 7.03214 9.3 15.7143C9.3 15.9795 9.30969 16.2446 9.31937 16.5098C3.89437 18.4446 0 23.6893 0 29.8571C0 37.6652 6.24844 44 13.95 44H49.6C56.4491 44 62 38.3723 62 31.4286C62 25.3491 57.7375 20.2714 52.08 19.1125ZM38.1106 25.1429H31.775V36.1429C31.775 37.0071 31.0775 37.7143 30.225 37.7143H25.575C24.7225 37.7143 24.025 37.0071 24.025 36.1429V25.1429H17.6894C16.3041 25.1429 15.6163 23.4536 16.5947 22.4616L26.8053 12.1098C27.4059 11.5009 28.3941 11.5009 28.9947 12.1098L39.2053 22.4616C40.1838 23.4536 39.4862 25.1429 38.1106 25.1429Z" fill="url(#paint0_linear)"/>
<defs>
<linearGradient id="paint0_linear" x1="31" y1="0" x2="31" y2="44" gradientUnits="userSpaceOnUse">
<stop stop-color="#519444"/>
<stop offset="1" stop-color="#B0D235"/>
</linearGradient>
</defs>
</svg>
