<svg width="50" height="44" viewBox="0 0 50 44" fill="none" xmlns="http://www.w3.org/2000/svg">
<path d="M4.66776 0C2.09077 0 0 2.11161 0 4.71429V39.2857C0 41.8884 2.09077 44 4.66776 44H45.1217C47.6987 44 49.7895 41.8884 49.7895 39.2857V4.71429C49.7895 2.11161 47.6987 0 45.1217 0H4.66776ZM4.66776 3.14286H14.9757C15.2966 3.14286 15.5592 3.40804 15.5592 3.73214V5.69643C15.5592 6.02054 15.2966 6.28571 14.9757 6.28571H3.69531C3.3744 6.28571 3.11184 6.02054 3.11184 5.69643V4.71429C3.11184 3.85 3.81201 3.14286 4.66776 3.14286ZM46.0942 12.5714H3.69531C3.3744 12.5714 3.11184 12.3062 3.11184 11.9821V8.44643C3.11184 8.12232 3.3744 7.85714 3.69531 7.85714H17.1151L20.0519 3.40804C20.1589 3.24107 20.3437 3.14286 20.5382 3.14286H45.1217C45.9775 3.14286 46.6776 3.85 46.6776 4.71429V11.9821C46.6776 12.3062 46.4151 12.5714 46.0942 12.5714ZM24.8947 38.5C18.4571 38.5 13.2253 33.2161 13.2253 26.7143C13.2253 20.2125 18.4571 14.9286 24.8947 14.9286C31.3324 14.9286 36.5641 20.2125 36.5641 26.7143C36.5641 33.2161 31.3324 38.5 24.8947 38.5ZM24.8947 18.0714C20.1784 18.0714 16.3372 21.9509 16.3372 26.7143C16.3372 31.4777 20.1784 35.3571 24.8947 35.3571C29.6111 35.3571 33.4523 31.4777 33.4523 26.7143C33.4523 21.9509 29.6111 18.0714 24.8947 18.0714ZM20.227 28.2857C19.3712 28.2857 18.6711 27.5786 18.6711 26.7143C18.6711 23.2473 21.462 20.4286 24.8947 20.4286C25.7505 20.4286 26.4507 21.1357 26.4507 22C26.4507 22.8643 25.7505 23.5714 24.8947 23.5714C23.1832 23.5714 21.7829 24.9857 21.7829 26.7143C21.7829 27.5786 21.0827 28.2857 20.227 28.2857Z" fill="#BDBDBD"/>
</svg>
